<?xml version="1.0" standalone="no"?>
<!DOCTYPE svg PUBLIC "-//W3C//DTD SVG 20010904//EN"
 "http://www.w3.org/TR/2001/REC-SVG-20010904/DTD/svg10.dtd">
<svg version="1.0" xmlns="http://www.w3.org/2000/svg"
 width="1894.000000pt" height="2078.000000pt" viewBox="0 0 1894.000000 2078.000000"
 preserveAspectRatio="xMidYMid meet">
<metadata>
Created by potrace 1.16, written by Peter Selinger 2001-2019
</metadata>
<g transform="translate(0.000000,2078.000000) scale(0.100000,-0.100000)"
fill="#000000" stroke="none">
<path d="M9478 19100 c-32 -4 -64 -13 -72 -20 -23 -19 -122 -23 -226 -10 -224
28 -273 29 -460 15 -143 -12 -289 -14 -645 -9 -485 6 -595 2 -820 -37 -109
-19 -130 -20 -228 -9 -253 30 -428 -17 -546 -146 -31 -35 -88 -116 -127 -180
-83 -142 -109 -174 -138 -174 -12 0 -35 -13 -50 -29 -25 -26 -29 -40 -32 -98
-2 -37 -9 -158 -14 -268 -34 -644 -145 -1687 -227 -2115 -117 -619 -226 -1387
-283 -2000 -17 -179 -40 -404 -51 -500 -35 -310 -49 -556 -49 -868 0 -322 15
-674 31 -732 5 -19 14 -114 19 -210 18 -315 54 -587 116 -871 18 -86 52 -275
74 -420 23 -145 52 -314 65 -376 42 -201 159 -555 265 -803 27 -63 52 -128 56
-144 4 -16 17 -45 30 -63 12 -19 26 -48 30 -66 10 -49 132 -319 154 -342 11
-12 24 -42 28 -67 5 -25 18 -59 29 -74 12 -16 77 -137 146 -270 152 -292 250
-459 282 -480 13 -8 28 -28 34 -45 24 -68 159 -254 193 -265 10 -3 18 -15 18
-27 0 -29 50 -102 170 -252 53 -66 131 -167 174 -225 88 -118 343 -376 381
-386 15 -4 25 -13 25 -24 0 -20 88 -127 208 -254 153 -162 147 -151 251 -466
110 -335 128 -383 151 -413 13 -17 19 -51 23 -142 4 -66 14 -187 24 -270 21
-184 24 -783 4 -1060 -17 -252 -49 -555 -66 -638 -17 -83 -68 -197 -88 -197
-8 0 -52 -34 -98 -76 -46 -41 -129 -107 -184 -146 -55 -40 -118 -86 -140 -104
-59 -47 -170 -111 -387 -222 -235 -119 -461 -223 -548 -252 -36 -12 -71 -29
-78 -38 -9 -12 -15 -13 -23 -5 -12 12 -39 7 -39 -8 0 -5 10 -9 23 -10 21 0 21
-1 2 -9 -11 -5 -34 -9 -52 -9 -124 -3 -723 -202 -723 -240 0 -6 -18 -22 -41
-36 -26 -17 -47 -41 -60 -68 -22 -51 -25 -137 -4 -177 41 -78 232 -179 419
-220 27 -6 94 -15 148 -20 58 -6 108 -16 121 -25 12 -8 40 -15 62 -15 53 0
225 -20 640 -75 807 -107 793 -105 1850 -142 363 -12 1410 44 1452 79 6 5 78
13 160 18 240 15 632 73 713 107 19 8 99 29 177 48 77 19 170 46 205 60 34 14
109 37 166 51 121 29 168 50 228 106 56 52 114 165 113 222 -1 69 -19 107 -65
131 -23 12 -67 40 -99 63 -32 23 -64 42 -71 42 -7 0 -121 38 -254 85 -257 91
-504 168 -672 210 -57 15 -128 37 -158 51 -30 13 -95 35 -145 50 -207 59 -608
254 -800 389 -247 173 -328 258 -324 340 2 22 -3 50 -9 62 -15 28 -16 551 -2
813 21 370 67 710 144 1057 99 441 243 856 354 1019 33 49 79 121 102 159 22
39 59 93 81 120 22 28 54 79 72 115 17 36 42 74 55 84 13 11 43 49 67 85 23
37 62 92 87 122 25 31 51 66 58 78 12 24 7 51 -10 51 -21 0 -99 -82 -110 -115
-6 -19 -20 -37 -32 -40 -11 -4 -27 -23 -35 -43 -8 -21 -39 -65 -69 -100 -38
-44 -54 -72 -54 -92 0 -21 -6 -29 -24 -34 -13 -3 -36 -21 -51 -38 -55 -69
-154 -232 -164 -274 -13 -50 -28 -58 -33 -16 -3 26 -6 27 -53 26 -27 0 -77 -8
-110 -17 -145 -41 -472 -67 -936 -74 -396 -6 -399 -6 -693 43 -120 19 -160 30
-207 56 -53 29 -62 31 -90 21 -21 -8 -39 -9 -57 -2 -46 18 -125 85 -182 156
-84 103 -118 136 -136 129 -8 -3 -13 -2 -10 3 9 14 -43 83 -158 207 -60 65
-113 129 -119 142 -9 19 -16 23 -39 18 -26 -5 -28 -3 -22 18 4 17 0 27 -13 35
-29 18 57 4 282 -45 378 -82 433 -87 1115 -105 669 -18 1030 0 1512 76 153 24
308 57 405 86 37 11 46 11 76 -6 19 -10 41 -15 50 -12 9 3 38 34 65 69 28 35
68 80 91 100 23 20 41 45 41 55 0 24 80 147 168 257 39 50 74 102 77 118 4 15
29 63 57 105 28 43 64 107 80 142 16 34 54 103 85 153 30 49 68 124 83 166 15
43 41 105 59 140 17 34 37 84 44 110 6 26 18 47 25 47 7 0 33 50 58 110 133
318 154 372 154 398 0 15 9 36 19 46 10 10 27 45 36 77 9 33 36 109 60 169 24
61 58 164 75 230 17 66 42 147 56 180 26 64 94 333 149 585 18 85 50 207 70
270 27 87 38 142 45 235 5 66 17 165 26 220 13 77 18 195 21 520 9 706 -30
1350 -107 1775 -41 227 -56 333 -80 560 -11 107 -29 269 -40 360 -26 223 -62
631 -110 1255 -22 286 -56 675 -75 865 -59 588 -63 681 -75 1445 -4 325 -11
598 -15 608 -4 9 -13 17 -20 17 -22 0 -27 -29 -36 -200 -8 -160 3 -1023 17
-1271 l7 -116 -34 0 c-19 -1 -206 -4 -417 -8 l-383 -8 3 59 3 59 54 7 c64 7
88 26 72 56 -15 28 -38 34 -77 20 -54 -19 -56 -9 -38 145 16 137 14 201 -9
210 -24 9 -57 -12 -57 -36 0 -13 -7 -48 -16 -77 -15 -51 -15 -55 2 -67 16 -12
16 -13 -6 -13 -13 0 -43 -7 -67 -16 -54 -21 -70 -14 -78 33 -12 72 -16 84 -31
90 -35 13 -66 -67 -34 -87 7 -4 9 -13 6 -19 -13 -20 4 -51 36 -67 29 -15 97
-16 148 -3 12 3 15 -8 15 -61 l0 -65 -37 -18 c-21 -10 -74 -25 -118 -33 -105
-18 -140 -34 -201 -91 l-51 -48 -282 -7 c-154 -4 -600 -12 -991 -18 -889 -13
-1364 -25 -1855 -46 -440 -19 -788 -15 -1209 12 l-273 18 6 55 c3 31 17 155
30 276 14 121 35 344 46 495 34 453 57 669 87 809 l16 74 111 -7 c344 -21 500
-26 1096 -36 360 -5 1438 -15 2395 -21 957 -6 1799 -14 1870 -18 149 -9 184
-3 208 38 24 41 21 93 -9 154 -27 53 -42 69 -56 61 -4 -3 -8 16 -8 43 0 66
-38 142 -103 207 -61 62 -150 116 -189 116 -16 0 -28 5 -28 10 0 16 -59 48
-120 66 -212 62 -405 72 -984 54 -368 -11 -425 -11 -548 4 -141 16 -319 19
-420 6z m1505 -27 c-7 -2 -21 -2 -30 0 -10 3 -4 5 12 5 17 0 24 -2 18 -5z
m-1079 -59 l111 -26 205 11 c352 20 730 30 845 21 271 -21 505 -102 624 -217
30 -29 60 -53 66 -53 8 0 14 -20 17 -48 6 -62 63 -186 100 -217 20 -17 25 -26
16 -32 -7 -4 -555 -12 -1218 -17 -1375 -9 -1227 -10 -1395 3 -71 5 -391 10
-710 10 -1032 2 -2060 24 -2182 47 l-31 6 13 36 c7 21 35 82 62 138 28 55 52
110 55 122 4 12 13 22 21 22 8 0 42 19 76 41 118 79 130 81 456 89 250 7 302
11 375 30 87 22 103 22 307 4 49 -4 101 -1 167 11 76 14 107 15 158 7 129 -22
222 -24 489 -11 384 19 557 18 646 -4 95 -23 135 -22 234 7 76 22 148 38 219
50 48 8 164 -5 274 -30z m693 30 c-3 -3 -12 -4 -19 -1 -8 3 -5 6 6 6 11 1 17
-2 13 -5z m-2349 -21 c-10 -2 -28 -2 -40 0 -13 2 -5 4 17 4 22 1 32 -1 23 -4z
m3049 1 c-3 -3 -12 -4 -19 -1 -8 3 -5 6 6 6 11 1 17 -2 13 -5z m-4380 -20 c-3
-3 -12 -4 -19 -1 -8 3 -5 6 6 6 11 1 17 -2 13 -5z m-576 -407 c-10 -9 -11 -8
-5 6 3 10 9 15 12 12 3 -3 0 -11 -7 -18z m4822 -204 c-7 -2 -19 -2 -25 0 -7 3
-2 5 12 5 14 0 19 -2 13 -5z m864 -195 c-3 -8 -6 -5 -6 6 -1 11 2 17 5 13 3
-3 4 -12 1 -19z m-17 -478 c0 -5 -4 -10 -10 -10 -5 0 -10 5 -10 10 0 6 5 10
10 10 6 0 10 -4 10 -10z m-912 -901 l3 -46 -158 -6 c-87 -3 -159 -4 -161 -2
-11 10 100 59 180 80 126 32 132 31 136 -26z m879 -65 c-3 -3 -12 -4 -19 -1
-8 3 -5 6 6 6 11 1 17 -2 13 -5z m33 -44 c0 -6 13 -142 30 -303 16 -160 43
-463 60 -672 88 -1107 206 -2183 280 -2560 27 -139 37 -228 55 -470 35 -487
47 -1402 21 -1538 -8 -40 -17 -130 -20 -202 -6 -146 -15 -200 -81 -500 -52
-237 -86 -373 -151 -590 -25 -82 -54 -192 -64 -242 -10 -51 -39 -143 -64 -205
-25 -62 -62 -165 -82 -228 -20 -63 -53 -154 -74 -201 -41 -90 -70 -189 -70
-233 0 -15 -7 -29 -15 -32 -18 -7 -101 -176 -118 -242 -7 -26 -25 -67 -41 -91
-15 -24 -105 -191 -198 -370 -94 -179 -208 -383 -254 -453 -151 -229 -307
-396 -419 -449 -74 -35 -211 -75 -324 -94 -48 -9 -113 -22 -146 -31 -216 -56
-474 -69 -1340 -69 -519 0 -738 3 -815 13 -263 32 -532 93 -637 144 -70 34
-113 33 -113 -3 0 -18 4 -21 30 -16 22 5 28 3 24 -8 -9 -24 -35 -26 -62 -5
-14 11 -62 67 -107 123 -46 56 -100 118 -121 137 -22 20 -47 54 -58 77 -10 23
-41 68 -68 100 -28 32 -59 77 -70 101 -11 24 -30 48 -44 54 -17 8 -24 19 -24
39 0 19 -6 30 -20 34 -11 3 -20 10 -20 15 0 21 60 76 143 132 109 73 144 89
188 82 27 -4 47 2 99 34 36 22 76 43 88 47 19 5 23 12 19 31 -2 13 0 24 6 24
6 0 18 6 26 14 11 10 52 17 121 22 58 3 119 12 135 19 47 20 155 103 173 135
l16 28 147 4 146 3 57 38 c40 26 62 50 73 75 15 35 16 36 24 15 7 -19 16 -23
49 -23 71 0 100 29 64 64 -23 24 -1 20 76 -14 38 -16 83 -30 101 -30 32 0 313
107 414 157 82 41 85 46 85 135 0 134 50 327 91 348 22 13 24 38 5 84 -15 35
-66 66 -109 66 -38 0 -48 21 -54 117 l-6 89 90 12 c163 22 213 50 233 132 6
26 34 85 61 130 97 164 117 177 166 113 67 -88 154 -250 168 -311 4 -21 15
-36 30 -42 23 -9 185 3 218 15 17 7 18 4 11 -31 -4 -22 -14 -68 -23 -104 -15
-59 -19 -67 -53 -82 -46 -22 -56 -52 -40 -123 6 -27 23 -104 37 -170 14 -66
30 -124 35 -129 5 -5 36 -4 72 3 142 25 377 60 441 64 76 5 97 17 97 57 0 15
9 39 21 54 14 18 19 34 15 51 -7 28 5 33 24 10 7 -8 23 -15 35 -15 28 0 85 51
85 77 0 56 76 93 242 117 162 24 272 25 341 1 l58 -19 -7 -43 c-5 -36 -3 -45
19 -67 15 -15 42 -27 70 -31 58 -9 366 -1 390 10 11 4 17 16 15 29 -2 17 -8
20 -33 16 -42 -7 -281 -4 -335 4 l-46 7 -17 68 c-10 38 -26 76 -36 85 -15 14
-52 16 -272 16 -140 0 -274 1 -299 2 l-44 3 -28 -57 c-33 -69 -86 -111 -161
-128 -73 -17 -95 -33 -103 -77 -8 -44 -35 -78 -84 -103 -83 -42 -383 -78 -407
-48 -7 7 -21 56 -33 106 -23 104 -19 122 31 147 16 9 34 27 39 41 6 14 10 91
10 171 l0 145 -68 -7 c-96 -9 -141 5 -190 61 -43 48 -111 173 -132 239 -24 78
-57 123 -100 136 -53 16 -86 2 -98 -43 -5 -19 -33 -72 -62 -118 -119 -188
-150 -244 -150 -266 0 -20 -7 -23 -56 -30 -34 -4 -78 -2 -110 5 -58 13 -74 10
-75 -17 0 -13 -3 -11 -11 6 -8 15 -19 22 -32 20 -20 -3 -21 -10 -23 -196 l-2
-194 22 6 c52 13 103 16 116 7 43 -28 -48 -367 -128 -478 -43 -60 -190 -116
-341 -129 -75 -7 -117 6 -129 39 -12 32 -36 49 -62 45 -22 -3 -28 -10 -51 -63
-8 -18 -31 -40 -59 -55 -25 -14 -65 -42 -89 -62 -49 -42 -78 -50 -274 -73
-141 -16 -125 -8 -239 -114 l-59 -54 -85 6 c-105 8 -123 1 -223 -85 -102 -88
-109 -91 -190 -83 -65 6 -69 6 -101 -23 -19 -16 -47 -36 -64 -45 -16 -8 -46
-35 -65 -58 -47 -60 -121 -139 -130 -139 -3 0 -5 13 -2 29 2 19 -5 42 -21 67
-13 22 -61 109 -106 194 -45 85 -92 164 -104 175 -12 11 -31 43 -41 70 -10 28
-80 181 -156 340 -75 160 -151 328 -169 375 -46 117 -65 164 -131 321 -59 138
-88 224 -179 539 -61 211 -70 256 -116 570 -20 135 -42 270 -50 300 -7 30 -17
78 -20 105 -4 28 -18 91 -31 141 -38 151 -98 712 -114 1064 -12 286 -13 843 0
1070 11 188 50 582 105 1040 19 157 41 355 50 440 20 190 51 420 105 775 38
251 44 336 26 376 -6 13 -1 15 22 11 l29 -4 22 139 c17 108 111 740 111 750 0
1 15 -3 32 -8 18 -5 80 -9 138 -9 58 -1 137 -5 175 -10 218 -31 453 -31 1320
0 155 5 735 14 1290 20 556 6 1066 15 1135 20 69 5 207 12 308 16 l182 7 -27
-59 c-26 -56 -28 -67 -28 -199 0 -161 6 -177 83 -222 l45 -27 135 12 c147 14
198 29 211 64 5 13 19 32 31 43 54 48 80 142 80 287 l0 108 353 3 c193 1 380
3 415 5 37 1 62 -2 62 -8z m-924 -135 c-10 -205 3 -183 -160 -268 -78 -41
-185 -33 -240 18 -22 21 -26 32 -26 84 0 75 23 196 47 247 l18 39 160 5 c88 3
171 7 184 8 l24 2 -7 -135z m981 3 c-3 -8 -6 -5 -6 6 -1 11 2 17 5 13 3 -3 4
-12 1 -19z m-1040 -290 c-3 -8 -6 -5 -6 6 -1 11 2 17 5 13 3 -3 4 -12 1 -19z
m-5060 -70 c-3 -8 -6 -5 -6 6 -1 11 2 17 5 13 3 -3 4 -12 1 -19z m-40 -340
c-3 -8 -6 -5 -6 6 -1 11 2 17 5 13 3 -3 4 -12 1 -19z m-140 -700 c-3 -8 -6 -5
-6 6 -1 11 2 17 5 13 3 -3 4 -12 1 -19z m-20 -200 c-3 -8 -6 -5 -6 6 -1 11 2
17 5 13 3 -3 4 -12 1 -19z m-50 -360 c-3 -8 -6 -5 -6 6 -1 11 2 17 5 13 3 -3
4 -12 1 -19z m-60 -570 c-3 -8 -6 -5 -6 6 -1 11 2 17 5 13 3 -3 4 -12 1 -19z
m-87 -1088 c0 -5 -4 -10 -10 -10 -5 0 -10 5 -10 10 0 6 5 10 10 10 6 0 10 -4
10 -10z m6780 -2720 c0 -5 -4 -10 -10 -10 -5 0 -10 5 -10 10 0 6 5 10 10 10 6
0 10 -4 10 -10z m-2775 -330 c3 -5 -1 -10 -10 -10 -9 0 -13 5 -10 10 3 6 8 10
10 10 2 0 7 -4 10 -10z m2616 -203 c-10 -9 -11 -8 -5 6 3 10 9 15 12 12 3 -3
0 -11 -7 -18z m-6180 -174 c13 -16 12 -17 -3 -4 -10 7 -18 15 -18 17 0 8 8 3
21 -13z m6109 -151 c0 -5 -7 -17 -16 -28 -8 -10 -14 -14 -11 -9 2 6 7 18 10
28 7 17 17 23 17 9z m-1233 -88 c-3 -3 -12 -4 -19 -1 -8 3 -5 6 6 6 11 1 17
-2 13 -5z m-817 -23 c0 -12 -20 -25 -27 -18 -7 7 6 27 18 27 5 0 9 -4 9 -9z
m527 -173 c-3 -8 -6 -5 -6 6 -1 11 2 17 5 13 3 -3 4 -12 1 -19z m1413 -18 c0
-5 -4 -10 -10 -10 -5 0 -10 5 -10 10 0 6 5 10 10 10 6 0 10 -4 10 -10z m-2930
-405 c0 -8 -7 -15 -16 -15 -14 0 -14 3 -4 15 7 8 14 15 16 15 2 0 4 -7 4 -15z
m2733 -55 c-6 -24 -23 -37 -23 -18 0 12 18 38 26 38 1 0 0 -9 -3 -20z m-251
-542 c-7 -7 -12 -8 -12 -2 0 14 12 26 19 19 2 -3 -1 -11 -7 -17z m-515 -820
c-3 -8 -6 -5 -6 6 -1 11 2 17 5 13 3 -3 4 -12 1 -19z m-342 -228 c3 -5 -1 -10
-10 -10 -9 0 -13 5 -10 10 3 6 8 10 10 10 2 0 7 -4 10 -10z m-108 -26 c-3 -3
-12 -4 -19 -1 -8 3 -5 6 6 6 11 1 17 -2 13 -5z m-2177 -844 c269 -49 342 -55
670 -54 445 1 782 23 1008 66 102 19 115 19 129 6 13 -14 10 -28 -36 -136 -28
-66 -67 -166 -87 -223 -20 -57 -46 -124 -60 -150 -33 -66 -75 -220 -139 -509
-99 -452 -120 -642 -145 -1310 -21 -574 -20 -559 -44 -575 -114 -73 -834 -80
-1109 -10 -32 8 -68 15 -79 15 -19 0 -20 4 -15 68 3 37 12 126 21 197 26 217
36 451 36 866 0 649 -17 781 -160 1254 -70 234 -78 257 -136 392 -24 56 -44
109 -44 118 0 19 3 18 190 -15z m1517 -1052 c-3 -8 -6 -5 -6 6 -1 11 2 17 5
13 3 -3 4 -12 1 -19z m-127 -1878 c0 -5 -4 -10 -10 -10 -5 0 -10 5 -10 10 0 6
5 10 10 10 6 0 10 -4 10 -10z m-1239 -36 c167 -59 529 -77 1029 -49 88 5 93 5
70 -9 -14 -9 -37 -15 -52 -16 -29 0 -37 -17 -16 -38 9 -9 5 -9 -18 0 -24 9
-54 7 -137 -5 -179 -28 -398 -18 -702 34 -230 38 -254 47 -255 87 0 16 28 15
81 -4z m1096 0 c-3 -3 -12 -4 -19 -1 -8 3 -5 6 6 6 11 1 17 -2 13 -5z m113
-38 c0 -3 -4 -8 -10 -11 -5 -3 -10 -1 -10 4 0 6 5 11 10 11 6 0 10 -2 10 -4z
m-1363 -68 c-3 -8 -6 -5 -6 6 -1 11 2 17 5 13 3 -3 4 -12 1 -19z m190 -22
c328 -94 703 -107 1060 -35 151 30 154 30 182 12 16 -10 51 -31 77 -48 27 -16
71 -51 98 -77 96 -94 380 -267 443 -269 16 -1 37 -4 48 -7 20 -5 20 -5 0 -12
-16 -6 -13 -10 26 -33 25 -15 51 -27 59 -27 7 0 58 -22 114 -50 108 -53 156
-69 156 -52 0 6 19 0 43 -13 23 -13 79 -33 123 -44 45 -11 121 -36 170 -55 49
-19 166 -57 259 -85 240 -73 555 -182 555 -193 0 -23 -43 -88 -81 -123 -48
-43 -208 -122 -325 -160 -99 -32 -288 -71 -649 -134 -455 -79 -420 -76 -1080
-74 -827 2 -1078 14 -1843 84 -739 67 -1147 132 -1402 221 -103 36 -143 60
-158 93 -8 18 -19 25 -39 25 -16 0 -35 5 -43 10 -13 9 -13 11 0 20 8 5 29 10
46 10 84 0 321 59 452 112 42 17 97 36 122 43 25 7 44 17 43 23 -1 6 12 14 30
17 17 4 59 21 92 37 33 17 82 37 109 45 70 21 126 60 126 89 0 12 5 26 10 29
6 3 10 -4 10 -15 0 -19 4 -21 28 -15 54 13 132 54 132 69 0 12 7 14 28 10 16
-3 48 1 71 8 42 15 50 14 241 -11 111 -15 430 -13 535 3 141 22 164 36 130 80
-22 29 -3 36 72 29 69 -6 122 9 124 36 3 32 -3 46 -26 70 l-24 25 -55 -19
c-54 -18 -62 -18 -268 -2 -117 10 -237 17 -265 17 -46 0 -53 3 -53 20 0 10 -7
23 -16 28 -14 8 -10 12 22 22 78 26 166 93 232 177 29 36 50 53 69 55 20 2 32
12 42 36 8 17 18 32 22 32 4 0 61 -15 126 -34z m920 -32 c-3 -3 -12 -4 -19 -1
-8 3 -5 6 6 6 11 1 17 -2 13 -5z m-1247 -63 c0 -5 -7 -14 -15 -21 -12 -10 -15
-10 -15 2 0 8 3 18 7 21 9 10 23 9 23 -2z m-246 -288 c4 -5 65 -8 134 -8 153
-1 275 -13 298 -29 13 -10 14 -17 5 -34 -6 -12 -21 -27 -33 -33 -12 -7 -110
-16 -220 -22 -164 -9 -205 -8 -236 3 -20 8 -57 16 -81 19 -56 7 -63 27 -18 46
19 8 42 26 51 40 13 19 25 25 55 25 21 0 41 -3 45 -7z m506 -43 c0 -5 -4 -10
-10 -10 -5 0 -10 5 -10 10 0 6 5 10 10 10 6 0 10 -4 10 -10z m2077 -36 c-3 -3
-12 -4 -19 -1 -8 3 -5 6 6 6 11 1 17 -2 13 -5z m1621 -630 c35 -31 67 -65 73
-77 16 -29 13 -95 -5 -122 -9 -14 -16 -31 -16 -39 0 -28 -51 -50 -131 -57 -79
-7 -77 -6 -377 -138 -127 -56 -303 -108 -409 -121 -48 -6 -171 -24 -273 -40
-265 -42 -631 -87 -800 -99 -280 -20 -846 -33 -1160 -27 -650 13 -895 30
-1440 101 -190 25 -462 58 -605 75 -492 58 -705 99 -843 165 -87 41 -192 135
-192 172 0 40 26 88 64 120 35 29 200 103 230 103 7 0 19 -14 26 -31 17 -41
79 -80 135 -87 42 -4 45 -6 30 -22 -23 -25 -2 -38 81 -50 38 -5 107 -20 154
-34 218 -63 626 -120 1145 -161 110 -9 319 -27 465 -41 337 -32 640 -42 1485
-50 779 -8 736 -11 1215 77 351 64 540 109 719 171 236 81 341 156 341 243 0
38 20 31 88 -31z m-188 -32 c0 -5 -7 -17 -15 -28 -14 -18 -14 -17 -4 9 12 27
19 34 19 19z m317 -164 c-3 -8 -6 -5 -6 6 -1 11 2 17 5 13 3 -3 4 -12 1 -19z
m-660 -14 c-3 -3 -12 -4 -19 -1 -8 3 -5 6 6 6 11 1 17 -2 13 -5z m-4624 -21
c-7 -2 -21 -2 -30 0 -10 3 -4 5 12 5 17 0 24 -2 18 -5z m5257 -44 c-7 -11 -14
-19 -16 -16 -7 7 7 37 17 37 6 0 5 -9 -1 -21z m-4747 -26 c-7 -2 -19 -2 -25 0
-7 3 -2 5 12 5 14 0 19 -2 13 -5z m3754 1 c-3 -3 -12 -4 -19 -1 -8 3 -5 6 6 6
11 1 17 -2 13 -5z m733 -73 c0 -12 -20 -25 -27 -18 -7 7 6 27 18 27 5 0 9 -4
9 -9z m-3507 -18 c-7 -2 -19 -2 -25 0 -7 3 -2 5 12 5 14 0 19 -2 13 -5z m2294
1 c-3 -3 -12 -4 -19 -1 -8 3 -5 6 6 6 11 1 17 -2 13 -5z m1093 -29 c0 -8 -7
-15 -16 -15 -14 0 -14 3 -4 15 7 8 14 15 16 15 2 0 4 -7 4 -15z m-1590 -9 c0
-3 -4 -8 -10 -11 -5 -3 -10 -1 -10 4 0 6 5 11 10 11 6 0 10 -2 10 -4z m-4000
-42 l25 -15 -30 6 c-16 4 -34 11 -39 16 -16 15 16 10 44 -7z m5497 10 c-3 -3
-12 -4 -19 -1 -8 3 -5 6 6 6 11 1 17 -2 13 -5z"/>
<path d="M9900 16556 c-80 -29 -253 -96 -386 -149 -132 -53 -267 -102 -299
-108 -32 -6 -74 -21 -94 -34 -20 -12 -79 -46 -131 -75 -153 -84 -189 -119
-140 -135 26 -8 40 1 40 26 0 14 7 19 27 19 15 0 69 21 120 46 52 25 100 44
107 41 16 -6 26 -52 26 -122 0 -28 3 -87 7 -129 5 -66 10 -80 29 -93 30 -19
62 -9 70 24 4 14 -3 64 -15 112 -25 103 -28 207 -6 238 8 12 30 31 48 42 58
36 508 222 590 243 74 20 78 20 90 4 12 -16 16 -17 49 -3 40 17 68 51 68 84 0
35 -35 29 -200 -31z m-713 -322 c-3 -3 -12 -4 -19 -1 -8 3 -5 6 6 6 11 1 17
-2 13 -5z"/>
<path d="M8205 16175 c-16 -8 -55 -14 -86 -15 -44 0 -58 -4 -64 -17 -14 -32
-18 -238 -6 -261 10 -19 15 -20 44 -10 39 14 47 24 47 63 1 67 94 205 121 178
16 -16 28 -80 29 -144 0 -130 10 -139 142 -117 71 12 83 16 83 33 0 18 -7 20
-65 21 -36 1 -70 2 -76 3 -7 0 -14 32 -18 74 -10 103 -24 146 -56 179 -31 31
-50 33 -95 13z m-75 -131 c0 -17 -22 -14 -28 4 -2 7 3 12 12 12 9 0 16 -7 16
-16z m-53 -146 c-3 -8 -6 -5 -6 6 -1 11 2 17 5 13 3 -3 4 -12 1 -19z"/>
<path d="M7734 16166 c-93 -42 -137 -226 -64 -263 30 -15 141 -17 192 -2 21 5
50 20 65 33 23 20 27 33 31 87 4 75 -7 111 -43 135 -34 22 -141 29 -181 10z
m123 -66 c20 -38 1 -131 -31 -152 -6 -4 -28 -8 -48 -8 -41 0 -78 30 -78 62 0
41 95 132 130 126 8 -2 20 -14 27 -28z"/>
<path d="M9560 16066 c-165 -111 -231 -222 -164 -275 54 -43 146 -17 234 65
28 26 51 45 53 43 1 -2 9 -17 17 -33 24 -46 61 -68 117 -69 55 -1 116 20 110
37 -2 6 -40 15 -85 20 l-82 9 0 76 c0 87 -12 116 -59 148 -47 32 -67 29 -141
-21z m104 -78 c16 -26 -18 -65 -100 -115 -76 -48 -100 -53 -109 -23 -18 56 94
164 163 158 20 -2 40 -11 46 -20z m51 12 c3 -5 1 -10 -4 -10 -6 0 -11 5 -11
10 0 6 2 10 4 10 3 0 8 -4 11 -10z"/>
<path d="M10255 16091 c-33 -10 -80 -27 -105 -38 -25 -11 -62 -23 -82 -27 -21
-4 -42 -15 -47 -24 -4 -9 -12 -93 -15 -187 -7 -157 -16 -252 -32 -331 -8 -40
15 -64 61 -64 l33 0 4 233 c2 127 7 239 12 248 4 9 18 21 31 27 13 6 42 27 63
47 49 44 108 65 181 65 68 0 126 -29 116 -59 -3 -11 -1 -22 5 -26 5 -3 10 -15
10 -26 0 -39 -177 -96 -255 -82 -17 3 -38 13 -48 21 -21 18 -50 7 -55 -22 -6
-28 62 -49 159 -50 77 0 93 3 144 29 75 39 100 72 100 134 0 54 -35 110 -85
136 -38 20 -120 18 -195 -4z"/>
<path d="M6950 15354 c-123 -62 -220 -178 -220 -262 0 -18 -4 -32 -9 -32 -18
0 -21 -55 -7 -108 20 -74 58 -119 128 -152 135 -64 258 -62 395 5 75 37 110
71 119 114 2 14 13 56 24 92 25 82 25 92 -2 146 -47 94 -213 216 -310 229 -36
5 -54 0 -118 -32z m234 -118 c46 -46 90 -105 83 -112 -2 -3 -60 7 -128 21
-148 32 -298 47 -316 33 -15 -12 -17 1 -3 22 6 9 21 14 39 12 16 -2 44 4 63
14 55 29 110 43 170 43 52 1 60 -2 92 -33z m-154 -168 c136 -26 240 -56 240
-69 0 -19 -29 -20 -117 -4 -162 30 -273 69 -273 96 0 7 9 9 23 5 12 -4 69 -16
127 -28z m-69 -97 c35 -11 89 -24 119 -30 91 -19 130 -31 130 -41 0 -16 -52
-38 -120 -50 -36 -7 -74 -15 -84 -19 -14 -5 -42 6 -93 37 -156 94 -127 156 48
103z"/>
<path d="M6270 15327 c-29 -14 -50 -51 -50 -88 0 -60 138 -127 178 -87 16 16
15 71 -2 113 -23 54 -83 84 -126 62z m70 -90 c18 -32 11 -41 -24 -27 -22 8
-25 13 -17 29 6 10 7 22 3 26 -4 4 0 6 8 3 8 -3 22 -16 30 -31z"/>
<path d="M7863 15100 c-26 -11 -53 -59 -53 -95 0 -60 115 -117 169 -84 49 32
56 116 12 160 -31 31 -81 38 -128 19z m81 -92 c22 -31 4 -46 -28 -24 -26 17
-31 27 -19 39 12 13 32 7 47 -15z"/>
<path d="M9739 15003 c-9 -2 -24 -22 -34 -44 -22 -47 -10 -85 30 -95 61 -15
107 26 88 81 -9 29 -60 64 -84 58z"/>
<path d="M8787 14818 c-36 -33 -41 -70 -16 -102 23 -30 56 -33 99 -11 57 29
44 101 -22 124 -39 14 -33 15 -61 -11z m43 -58 c0 -5 -4 -10 -10 -10 -5 0 -10
5 -10 10 0 6 5 10 10 10 6 0 10 -4 10 -10z"/>
<path d="M8749 14313 c-1 -10 -1 -33 0 -51 2 -27 -4 -40 -34 -68 -32 -30 -39
-33 -49 -20 -7 10 -37 18 -86 22 -41 4 -97 15 -125 25 -27 11 -57 19 -66 19
-47 0 -109 -101 -95 -155 8 -30 64 -59 136 -70 98 -14 231 -47 245 -62 22 -22
19 -76 -5 -91 -55 -34 7 -92 100 -92 55 -1 139 -18 194 -39 39 -16 119 -16
156 -1 18 7 33 22 36 36 6 22 11 24 73 24 72 0 289 -39 360 -64 54 -20 90 -20
161 -1 30 8 56 12 59 10 2 -3 -4 -56 -14 -118 -27 -176 -17 -184 192 -160 76
8 158 16 183 17 46 2 64 9 126 51 34 23 37 23 82 9 26 -8 108 -26 182 -39 74
-14 145 -30 158 -37 30 -16 38 -52 22 -107 -24 -88 -24 -88 7 -104 16 -9 72
-25 124 -37 51 -12 133 -40 180 -62 48 -22 95 -38 105 -36 12 2 22 19 30 53 7
27 21 56 31 63 36 27 203 -11 395 -90 64 -26 80 -29 93 -18 8 7 15 22 15 35 0
22 28 55 47 55 15 0 43 34 43 53 0 20 -23 33 -78 42 -51 8 -361 109 -404 131
-40 21 -50 53 -36 115 11 47 10 53 -7 65 -10 8 -35 14 -55 14 -47 0 -237 62
-295 96 -43 25 -47 25 -70 10 -14 -9 -34 -34 -45 -56 -11 -22 -27 -40 -34 -40
-28 0 -202 62 -245 87 -42 24 -46 25 -97 13 -84 -20 -101 -1 -69 77 18 43 19
85 3 101 -7 7 -38 12 -70 12 -44 0 -58 3 -58 15 0 28 -43 43 -145 48 -55 2
-108 2 -118 -2 -9 -4 -26 -20 -36 -37 -24 -39 -118 -89 -138 -73 -7 6 -13 19
-13 29 0 41 -28 51 -235 84 -209 34 -345 71 -345 95 0 5 11 16 25 25 56 37 20
67 -116 97 -52 11 -123 27 -159 35 -36 8 -97 30 -135 49 -81 40 -85 41 -86 18z
m166 -123 c33 -6 99 -15 146 -20 112 -12 122 -16 106 -41 -10 -16 -8 -27 11
-60 13 -22 22 -43 19 -45 -2 -3 -20 4 -38 14 -19 11 -79 32 -134 47 -156 41
-215 69 -215 101 0 17 23 18 105 4z m-482 -25 c12 -8 53 -21 92 -30 77 -18
100 -28 133 -58 21 -20 31 -57 14 -57 -19 0 -226 62 -252 75 -37 19 -42 28
-34 60 7 29 16 31 47 10z m581 -135 c61 -16 116 -36 124 -44 17 -16 10 -44
-13 -52 -24 -10 -275 50 -328 78 -18 9 -18 11 -1 29 25 27 88 24 218 -11z
m496 -81 c179 -30 171 -28 160 -49 -6 -10 -10 -34 -10 -53 0 -42 -10 -47 -90
-47 -57 0 -294 52 -335 73 -41 21 -44 43 -13 82 21 27 23 27 97 20 42 -4 128
-15 191 -26z m-521 -48 c35 -11 71 -27 82 -37 22 -20 27 -92 6 -100 -18 -7
-186 39 -252 70 -48 22 -55 28 -55 54 0 16 3 32 8 36 11 13 143 -2 211 -23z
m1037 -8 c-1 -16 9 -18 114 -15 l115 4 -19 -21 c-22 -24 -64 -31 -219 -35 -78
-2 -117 0 -114 7 2 8 112 76 123 77 1 0 1 -8 0 -17z m-261 -55 c6 -6 6 -11 -1
-16 -6 -4 -14 -16 -18 -26 -9 -25 -22 -11 -30 32 -5 31 -4 33 17 27 12 -4 26
-11 32 -17z m525 -42 c0 -31 -21 -52 -60 -61 -31 -7 -50 -1 -50 16 0 10 87 69
102 69 4 0 8 -11 8 -24z m-227 -55 c-3 -10 3 -31 13 -46 12 -18 18 -48 18 -93
l1 -65 -33 -9 c-18 -5 -70 -7 -115 -6 l-82 3 -3 75 c-4 91 2 116 29 130 25 14
92 27 141 29 31 1 35 -2 31 -18z m137 -87 c57 -53 61 -74 24 -103 -46 -36 -69
-20 -58 37 3 15 -1 46 -9 70 -8 23 -13 42 -10 42 2 0 26 -21 53 -46z m275 36
c3 -5 -1 -10 -9 -10 -9 0 -16 5 -16 10 0 6 4 10 9 10 6 0 13 -4 16 -10z m-71
-26 c22 -9 21 -44 -2 -44 -26 0 -56 25 -48 38 8 13 26 15 50 6z m282 -59 c55
-16 104 -54 104 -81 0 -14 -8 -16 -52 -11 -66 7 -211 53 -240 76 -13 11 -18
23 -13 31 10 16 126 8 201 -15z m429 -6 c56 -19 71 -28 73 -47 5 -31 -27 -40
-100 -30 -93 13 -182 68 -162 100 10 16 109 3 189 -23z m-104 -115 c77 -23
143 -59 169 -91 22 -28 22 -28 2 -31 -52 -8 -303 89 -315 123 -9 21 71 21 144
-1z m18 -139 c62 -13 116 -27 121 -30 11 -7 -5 -53 -27 -77 -24 -26 -79 -22
-188 12 -91 30 -95 32 -95 60 0 70 17 73 189 35z m441 -26 c180 -43 211 -59
190 -98 -15 -28 -30 -27 -167 15 -127 38 -209 77 -224 106 -14 27 9 24 201
-23z"/>
<path d="M7628 13570 c-26 -16 -35 -66 -52 -275 -54 -662 -70 -835 -92 -1045
-29 -273 -70 -605 -84 -681 -6 -28 -10 -53 -10 -55 0 -16 -31 6 -90 61 -38 36
-76 65 -85 65 -8 0 -20 12 -26 27 -21 56 -235 288 -311 337 -27 17 -48 15 -48
-6 0 -22 73 -108 96 -114 15 -4 32 -21 43 -43 11 -20 45 -72 76 -116 147 -204
231 -340 217 -349 -15 -9 -132 -27 -273 -41 -141 -14 -327 -25 -764 -45 -220
-10 -281 -18 -279 -36 2 -19 121 -24 685 -32 318 -4 581 -11 585 -15 17 -17
-202 -298 -374 -479 -105 -112 -118 -138 -81 -161 19 -12 62 -3 83 19 9 8 16
29 16 45 0 23 4 29 22 29 15 0 50 30 107 92 169 183 369 378 388 378 15 0 18
-8 19 -52 0 -29 5 -127 12 -218 6 -91 16 -381 22 -645 21 -952 30 -1238 41
-1252 17 -19 53 -16 74 7 16 18 17 27 6 89 -30 183 2 1908 37 1943 17 17 223
-228 364 -433 86 -126 119 -144 161 -87 18 24 18 28 4 56 -8 17 -70 106 -138
199 -178 242 -320 456 -311 465 24 24 383 54 822 68 371 13 487 23 509 45 39
38 16 40 -615 42 -603 2 -714 7 -714 37 0 36 140 211 321 401 63 66 125 135
137 153 52 73 -7 111 -83 52 -22 -16 -63 -45 -91 -64 -27 -19 -62 -51 -76 -73
-60 -90 -251 -283 -280 -283 -30 0 24 1150 78 1653 14 131 24 261 22 290 -3
47 -5 52 -28 54 -14 2 -33 -2 -42 -7z m-51 -692 c-3 -8 -6 -5 -6 6 -1 11 2 17
5 13 3 -3 4 -12 1 -19z m0 -190 c-3 -7 -5 -2 -5 12 0 14 2 19 5 13 2 -7 2 -19
0 -25z m-20 -160 c-3 -8 -6 -5 -6 6 -1 11 2 17 5 13 3 -3 4 -12 1 -19z m-2
-246 c-10 -70 -18 -40 -9 35 5 45 9 58 12 39 2 -17 1 -50 -3 -74z m2 -184 c-3
-8 -6 -5 -6 6 -1 11 2 17 5 13 3 -3 4 -12 1 -19z m-17 -143 c0 -23 -3 -27 -10
-15 -5 8 -10 29 -10 45 0 23 3 27 10 15 5 -8 10 -28 10 -45z m514 -30 c-4 -8
-11 -15 -16 -15 -6 0 -5 6 2 15 7 8 14 15 16 15 2 0 1 -7 -2 -15z m-67 -61
c-3 -3 -12 -4 -19 -1 -8 3 -5 6 6 6 11 1 17 -2 13 -5z m-469 -129 c9 16 11 5
12 -57 0 -95 -16 -178 -36 -178 -22 0 -26 40 -15 143 6 53 11 100 12 104 0 4
4 -1 8 -12 8 -19 8 -19 19 0z m296 -50 c-9 -14 -14 -32 -10 -40 4 -11 -1 -15
-19 -15 -17 0 -33 -12 -54 -43 -32 -47 -105 -117 -121 -117 -20 0 10 40 107
140 93 97 131 126 97 75z m-487 -217 c33 -46 36 -68 9 -68 -7 0 -22 13 -33 28
-22 30 -73 127 -73 139 0 12 60 -49 97 -99z m103 -17 c0 -12 -20 -25 -27 -18
-7 7 6 27 18 27 5 0 9 -4 9 -9z m1423 -128 c-7 -2 -21 -2 -30 0 -10 3 -4 5 12
5 17 0 24 -2 18 -5z m-1411 -35 c-5 -5 -22 -8 -38 -6 l-29 4 25 11 c28 12 57
6 42 -9z m-377 3 c-6 -5 -23 -12 -40 -15 l-30 -6 30 14 c35 18 54 20 40 7z
m178 -3 c6 -19 -3 -38 -19 -38 -8 0 -14 10 -14 25 0 26 25 35 33 13z m64 6
c-3 -3 -12 -4 -19 -1 -8 3 -5 6 6 6 11 1 17 -2 13 -5z m487 -3 c8 -12 -29 -21
-86 -21 -47 0 -73 15 -41 23 33 8 122 7 127 -2z m189 2 c-7 -2 -19 -2 -25 0
-7 3 -2 5 12 5 14 0 19 -2 13 -5z m-1125 -20 c-10 -2 -28 -2 -40 0 -13 2 -5 4
17 4 22 1 32 -1 23 -4z m289 1 c-3 -3 -12 -4 -19 -1 -8 3 -5 6 6 6 11 1 17 -2
13 -5z m-994 -21 c-7 -2 -21 -2 -30 0 -10 3 -4 5 12 5 17 0 24 -2 18 -5z
m1167 -79 c0 -16 -83 -100 -155 -157 l-40 -32 29 38 c16 21 41 46 56 57 14 10
35 36 46 57 10 21 24 41 29 45 17 13 35 9 35 -8z m366 -117 c45 -54 147 -199
199 -279 10 -16 13 -28 6 -28 -6 0 -65 66 -132 146 -67 80 -139 158 -161 174
-35 26 -37 30 -21 39 37 21 57 11 109 -52z m-168 -200 c-4 -199 -18 -272 -35
-192 -4 22 -7 99 -7 170 1 129 15 215 36 215 7 0 9 -57 6 -193z m-488 4 c0 -6
-4 -13 -10 -16 -5 -3 -10 1 -10 9 0 9 5 16 10 16 6 0 10 -4 10 -9z m985 -249
c-7 -7 -45 28 -57 53 -7 12 3 7 26 -14 19 -19 34 -37 31 -39z m-1208 -14 c-3
-8 -6 -5 -6 6 -1 11 2 17 5 13 3 -3 4 -12 1 -19z m1273 -89 c0 -5 -7 -9 -15
-9 -8 0 -15 7 -15 15 0 9 6 12 15 9 8 -4 15 -10 15 -15z m-576 -154 c-4 -8
-10 -15 -15 -15 -5 0 -9 7 -9 15 0 8 7 15 15 15 9 0 12 -6 9 -15z"/>
<path d="M9325 13086 c-44 -19 -58 -42 -57 -92 0 -44 14 -74 34 -74 6 0 19
-11 30 -25 11 -14 30 -25 42 -25 27 0 100 50 115 79 17 32 13 86 -9 114 -17
22 -25 25 -45 17 -17 -7 -25 -5 -29 6 -7 17 -41 18 -81 0z m88 -90 c29 -37 26
-46 -13 -46 -32 0 -50 17 -50 45 0 46 29 47 63 1z"/>
<path d="M9552 12957 c-17 -18 -19 -26 -10 -35 7 -7 18 -12 25 -12 7 0 13 -7
13 -15 0 -9 11 -20 25 -25 37 -14 125 -76 246 -172 58 -47 159 -125 225 -175
132 -100 224 -193 224 -226 0 -12 -9 -28 -20 -35 -11 -7 -20 -18 -20 -25 0
-20 48 -61 113 -97 56 -31 58 -32 78 -14 24 22 79 134 79 163 0 25 -28 41 -73
41 -26 0 -39 6 -51 25 -9 13 -31 32 -49 41 -56 29 -373 262 -546 402 -57 46
-119 91 -137 100 -22 10 -37 27 -45 49 -13 40 -45 44 -77 10z m818 -666 c0 -6
-4 -13 -10 -16 -5 -3 -10 1 -10 9 0 9 5 16 10 16 6 0 10 -4 10 -9z m97 -18
c-3 -5 -10 -27 -16 -50 -13 -49 -35 -56 -53 -18 -6 14 -9 26 -7 28 2 2 17 13
33 25 28 21 52 29 43 15z"/>
<path d="M9204 12850 c-11 -4 -36 -28 -55 -52 -19 -23 -78 -90 -133 -148 -54
-58 -103 -115 -109 -127 -5 -13 -19 -26 -31 -29 -37 -11 -47 -24 -35 -46 8
-15 8 -19 -1 -13 -6 4 -22 4 -36 1 -18 -5 -24 -13 -24 -34 0 -41 13 -54 44
-46 29 7 51 37 42 60 -3 8 0 14 8 14 7 0 74 62 150 138 75 75 153 148 174 161
59 40 82 63 82 86 0 40 -30 54 -76 35z"/>
<path d="M8653 12380 c-47 -43 -55 -161 -15 -210 16 -20 22 -21 72 -12 40 8
61 7 77 -1 43 -22 198 -121 398 -253 110 -72 281 -182 380 -244 233 -145 280
-181 317 -241 33 -55 66 -76 129 -84 53 -7 70 -17 102 -57 14 -18 76 -98 138
-178 63 -80 121 -153 131 -164 9 -10 20 -33 23 -50 4 -17 17 -47 29 -66 13
-19 27 -46 31 -60 12 -40 44 -79 77 -96 26 -13 38 -14 70 -5 30 9 53 9 96 0
92 -18 270 -75 360 -113 46 -20 94 -36 106 -36 19 0 26 -10 41 -61 25 -83 52
-103 128 -96 71 6 97 26 92 69 -8 58 -25 68 -233 139 -81 28 -196 74 -257 101
-163 74 -207 90 -232 85 -20 -4 -23 0 -23 26 0 36 -36 97 -57 97 -18 0 -73
-31 -73 -42 0 -4 -7 -8 -16 -8 -12 0 -14 7 -9 31 8 36 -11 60 -95 120 -30 21
-64 51 -75 66 -11 14 -57 74 -102 132 -100 129 -173 268 -173 329 0 24 7 56
15 73 9 16 30 69 46 117 42 119 92 213 129 248 40 36 49 61 39 98 -7 22 -5 32
8 41 20 15 10 65 -13 65 -34 0 -54 -24 -94 -117 -24 -54 -70 -154 -103 -223
-32 -69 -70 -154 -82 -190 l-24 -65 -64 1 c-54 0 -74 6 -133 39 -146 81 -427
253 -619 380 -110 72 -229 149 -265 170 -137 81 -130 74 -130 135 -1 70 -27
112 -59 93 -17 -11 -20 -10 -23 10 -4 29 -38 33 -65 7z m89 -110 c-2 -16 -8
-27 -13 -24 -11 6 -12 38 -2 47 14 14 19 6 15 -23z m1258 -804 c18 -23 9 -61
-15 -61 -14 0 -21 8 -23 28 -2 15 -8 27 -13 27 -5 0 -9 5 -9 10 0 15 46 12 60
-4z m630 -690 c0 -33 -67 -87 -81 -65 -16 25 -10 49 15 59 13 5 27 14 31 19
12 21 35 12 35 -13z m760 -343 c0 -14 -19 -38 -25 -32 -8 8 5 39 16 39 5 0 9
-3 9 -7z"/>
<path d="M11919 10696 c-13 -13 -32 -36 -42 -50 -42 -61 -144 -98 -297 -109
-110 -7 -174 -48 -121 -77 11 -5 37 -8 58 -5 145 17 122 13 283 45 124 25 224
56 241 76 10 13 10 24 0 61 -21 80 -75 106 -122 59z"/>
<path d="M9420 9243 c-72 -51 -114 -127 -114 -205 -1 -66 20 -102 75 -131 57
-30 209 -9 209 30 0 8 11 13 29 13 20 0 37 9 55 31 57 67 18 188 -78 244 -60
35 -141 44 -176 18z m177 -39 c-3 -3 -12 -4 -19 -1 -8 3 -5 6 6 6 11 1 17 -2
13 -5z m-177 -18 c0 -2 -8 -10 -17 -17 -16 -13 -17 -12 -4 4 13 16 21 21 21
13z m155 -51 c56 -56 8 -115 -94 -115 -76 0 -105 54 -53 102 49 46 109 52 147
13z m53 -114 c-7 -12 -16 -21 -21 -21 -4 0 0 11 10 24 22 29 30 27 11 -3z
m-281 -13 c-3 -7 -5 -2 -5 12 0 14 2 19 5 13 2 -7 2 -19 0 -25z"/>
<path d="M8510 8153 c-71 -19 -90 -37 -147 -147 -43 -83 -47 -98 -49 -166 -1
-41 -5 -121 -9 -177 -7 -92 -5 -108 14 -160 36 -93 51 -120 77 -132 52 -23 89
-14 173 44 88 61 95 73 107 191 4 34 10 67 14 74 12 20 30 2 30 -30 0 -32 23
-60 49 -60 27 0 38 18 45 76 5 44 3 53 -15 70 -18 16 -36 19 -123 19 -122 0
-161 -15 -161 -59 0 -24 5 -31 28 -37 42 -11 57 -28 57 -64 0 -58 -19 -92 -69
-124 -26 -17 -55 -31 -64 -31 -27 0 -45 40 -67 145 -23 118 -25 198 -6 257 8
24 17 58 21 75 4 18 11 35 16 38 4 3 16 21 25 40 11 25 31 41 68 59 l51 24 33
-20 c18 -11 39 -17 47 -14 21 8 18 55 -5 94 -23 37 -49 40 -140 15z"/>
<path d="M8853 7723 c-23 -9 -14 -26 35 -69 47 -41 47 -42 48 -105 1 -86 1
-87 25 -100 33 -17 69 22 69 77 0 50 16 90 39 100 9 3 47 12 85 20 80 16 88
21 62 40 -30 22 -129 18 -177 -6 l-40 -21 -33 21 c-19 11 -39 27 -46 35 -12
15 -43 18 -67 8z"/>
<path d="M9930 7723 c-33 -5 -171 -33 -192 -39 -22 -6 -31 -33 -17 -50 16 -20
63 -17 107 5 57 28 107 35 126 16 14 -14 14 -19 1 -44 -22 -43 -72 -81 -106
-81 -35 0 -90 -22 -126 -50 -33 -26 -41 -25 -91 7 -38 25 -42 31 -42 69 0 51
-21 94 -66 133 -67 60 -150 32 -256 -87 -60 -66 -64 -102 -15 -133 27 -17 49
-20 137 -19 58 0 143 -3 189 -6 80 -6 86 -8 117 -40 l32 -34 63 36 c59 33 66
35 89 22 13 -7 34 -29 47 -48 39 -62 50 -70 97 -70 53 0 87 12 141 48 58 39
64 44 102 80 33 30 34 34 20 55 -8 12 -26 23 -41 25 -20 3 -28 -2 -36 -22 -22
-60 -114 -124 -160 -112 -8 2 -28 7 -43 10 -21 5 -33 18 -46 47 -21 47 -18 72
13 97 55 46 70 72 67 115 -4 68 -28 83 -111 70z m-471 -90 c21 -5 23 -10 18
-50 -2 -25 -9 -48 -13 -53 -5 -5 -36 -10 -69 -12 -56 -3 -60 -1 -63 20 -5 30
34 90 61 95 36 7 41 7 66 0z"/>
<path d="M9320 2641 c-105 -23 -250 -77 -442 -166 -200 -92 -258 -145 -258
-236 0 -24 11 -42 53 -82 88 -86 167 -114 450 -162 230 -38 384 -48 650 -42
257 6 358 17 447 48 30 10 67 19 82 19 35 0 87 51 122 121 30 60 33 106 11
150 -28 53 -182 139 -330 184 -49 15 -148 51 -220 80 -199 81 -256 96 -375
101 -78 3 -127 -1 -190 -15z m253 -38 c-7 -2 -19 -2 -25 0 -7 3 -2 5 12 5 14
0 19 -2 13 -5z m72 -68 c28 -9 64 -29 80 -45 26 -24 40 -28 110 -33 70 -4 98
-12 222 -65 226 -97 293 -136 293 -171 0 -34 -56 -98 -97 -111 -21 -7 -46 -22
-55 -34 -17 -21 -23 -21 -394 -24 -394 -4 -513 3 -719 39 -246 44 -366 111
-333 184 21 46 228 163 388 219 186 66 387 82 505 41z m173 -27 c-3 -7 -11
-13 -18 -13 -7 0 -15 6 -17 13 -3 7 4 12 17 12 13 0 20 -5 18 -12z m367 -103
c33 -20 36 -24 18 -25 -12 0 -35 11 -50 25 -36 32 -19 32 32 0z m-1395 -34 c0
-12 -20 -25 -27 -18 -7 7 6 27 18 27 5 0 9 -4 9 -9z m-95 -72 c-9 -17 -19 -29
-22 -26 -5 5 25 57 33 57 3 0 -3 -14 -11 -31z m1696 -26 c13 -16 12 -17 -3 -4
-10 7 -18 15 -18 17 0 8 8 3 21 -13z m-1682 -70 c0 -34 -1 -36 -11 -16 -6 12
-8 29 -5 37 11 27 17 18 16 -21z m1641 -117 c0 -2 -8 -10 -17 -17 -16 -13 -17
-12 -4 4 13 16 21 21 21 13z m-1057 -73 c-7 -2 -19 -2 -25 0 -7 3 -2 5 12 5
14 0 19 -2 13 -5z m304 -19 c-3 -3 -12 -4 -19 -1 -8 3 -5 6 6 6 11 1 17 -2 13
-5z"/>
<path d="M7390 17886 c0 -8 -8 -12 -23 -9 -20 4 -25 -1 -36 -39 -33 -109 -171
-348 -264 -457 -63 -73 -205 -273 -240 -338 -30 -56 -29 -73 6 -73 35 0 61 24
102 95 67 115 224 245 294 245 39 0 76 -30 119 -94 54 -81 72 -119 80 -169 9
-53 45 -70 88 -43 30 20 30 -3 0 251 -8 66 -20 199 -26 295 -14 213 -27 319
-41 337 -15 17 -59 17 -59 -1z m14 -203 c9 -42 24 -195 32 -318 l7 -110 -36
32 c-20 17 -45 34 -56 38 -12 3 -21 15 -21 25 0 24 -41 53 -108 75 l-53 17 36
41 c19 23 47 65 61 92 24 46 106 135 125 135 4 0 10 -12 13 -27z m-176 -310
c18 -4 20 -8 10 -14 -18 -12 -85 -11 -92 0 -11 18 39 26 82 14z m-242 -189
c-4 -9 -9 -15 -11 -12 -3 3 -3 13 1 22 4 9 9 15 11 12 3 -3 3 -13 -1 -22z"/>
<path d="M8245 17806 c-17 -12 -21 -32 -26 -138 -4 -67 -7 -124 -8 -125 0 -1
-14 -18 -31 -36 l-30 -34 30 -27 c28 -24 30 -31 30 -95 0 -38 -7 -121 -16
-184 -18 -130 -12 -158 37 -186 24 -13 31 -13 70 2 53 20 125 85 110 100 -7 7
-25 5 -53 -6 -24 -10 -46 -17 -50 -17 -11 0 -17 183 -10 285 l7 100 94 17 c52
10 99 22 105 28 21 21 -18 31 -106 28 -57 -2 -91 1 -99 9 -9 9 -9 35 0 110 7
54 14 110 17 124 3 17 -1 33 -11 43 -20 20 -35 20 -60 2z m12 -68 c-3 -8 -6
-5 -6 6 -1 11 2 17 5 13 3 -3 4 -12 1 -19z m-20 -680 c-3 -8 -6 -5 -6 6 -1 11
2 17 5 13 3 -3 4 -12 1 -19z"/>
<path d="M8855 17453 c-16 -8 -45 -29 -62 -46 -29 -27 -35 -29 -58 -19 -14 7
-48 12 -75 12 -85 0 -135 -68 -64 -86 15 -4 35 -2 44 4 14 9 22 6 41 -15 22
-23 24 -33 24 -141 l0 -117 40 0 c38 0 40 1 47 40 4 22 7 67 7 100 1 64 24
170 42 191 6 8 39 14 77 16 73 3 93 22 43 39 -17 6 -31 17 -31 25 0 19 -37 17
-75 -3z m-98 -145 c-3 -8 -6 -5 -6 6 -1 11 2 17 5 13 3 -3 4 -12 1 -19z m-20
-200 c-3 -7 -5 -2 -5 12 0 14 2 19 5 13 2 -7 2 -19 0 -25z"/>
<path d="M7835 17441 c-22 -10 -59 -38 -83 -63 l-42 -44 42 -35 c69 -56 105
-79 125 -79 28 0 53 -32 53 -68 0 -41 -42 -89 -91 -104 -35 -10 -46 -9 -94 11
-67 28 -96 25 -109 -12 -8 -22 -6 -31 8 -45 17 -16 19 -16 33 5 15 22 15 22
36 2 11 -10 37 -24 56 -29 108 -30 280 129 245 228 -7 20 -30 37 -89 67 -105
52 -106 70 -5 70 69 0 75 2 87 25 18 36 16 68 -6 80 -31 16 -122 11 -166 -9z
m110 -41 c3 -5 2 -10 -4 -10 -5 0 -13 5 -16 10 -3 6 -2 10 4 10 5 0 13 -4 16
-10z"/>
<path d="M10005 17428 c-52 -49 -78 -132 -73 -230 5 -75 20 -114 41 -101 6 4
8 -2 4 -16 -16 -61 80 -66 193 -9 84 43 126 104 123 182 -4 137 -11 149 -109
185 -83 32 -137 28 -179 -11z m198 -58 c53 -42 42 -154 -24 -234 -31 -37 -34
-38 -81 -34 -75 8 -98 35 -98 117 0 39 6 78 15 95 8 15 15 35 15 42 0 37 131
47 173 14z"/>
<path d="M9057 17402 c-36 -38 -65 -114 -78 -207 -9 -64 -8 -80 7 -110 21 -45
86 -84 151 -91 94 -12 158 40 194 157 28 91 25 141 -11 182 -34 39 -135 88
-194 94 -35 4 -45 1 -69 -25z m161 -84 c48 -52 85 -186 47 -172 -11 4 -19 -3
-26 -24 -27 -77 -145 -65 -170 17 -15 50 1 121 37 169 31 40 79 44 112 10z
m-147 -255 c13 -16 12 -17 -3 -4 -17 13 -22 21 -14 21 2 0 10 -8 17 -17z"/>
<path d="M9423 17398 c-11 -18 -15 -215 -6 -268 15 -81 95 -97 100 -19 7 88
24 138 59 168 19 17 43 31 53 31 35 0 44 -26 47 -146 3 -159 20 -174 130 -109
118 70 131 133 15 68 -68 -38 -77 -29 -74 88 3 117 -4 133 -63 153 -60 20 -78
20 -70 1 4 -11 -2 -15 -22 -15 -15 0 -40 -11 -56 -25 -43 -37 -56 -33 -56 18
0 43 -13 67 -36 67 -7 0 -16 -6 -21 -12z"/>
<path d="M10364 17397 c-3 -8 0 -34 5 -58 6 -24 11 -84 11 -134 0 -101 7 -118
41 -113 25 3 37 31 56 123 6 31 13 41 31 43 23 4 24 3 20 -87 -3 -102 5 -121
48 -105 21 7 30 22 45 69 21 66 58 136 75 142 11 4 24 -89 24 -179 0 -59 28
-95 60 -78 25 13 25 35 4 177 -17 114 -31 143 -70 143 -38 0 -55 -12 -85 -57
l-28 -45 -11 43 c-13 46 -58 99 -85 99 -13 0 -16 -6 -11 -24 5 -20 2 -24 -23
-28 -28 -4 -29 -3 -24 24 3 16 0 34 -7 43 -15 19 -69 20 -76 2z m76 -231 c0
-2 -8 -10 -17 -17 -16 -13 -17 -12 -4 4 13 16 21 21 21 13z"/>
</g>
</svg>
